<svg height="512pt" viewBox="0 -86 512 512" width="512pt" xmlns="http://www.w3.org/2000/svg"><path d="m150 100c0-27.570312-22.429688-50-50-50s-50 22.429688-50 50 22.429688 50 50 50 50-22.429688 50-50zm-80 0c0-16.542969 13.457031-30 30-30s30 13.457031 30 30-13.457031 30-30 30-30-13.457031-30-30zm0 0"/><path d="m412 0c-39.144531 0-73.75 22.621094-90.140625 56.652344-2.394531 4.976562-.304687 10.953125 4.667969 13.347656 4.980468 2.398438 10.953125.308594 13.351562-4.671875 13.261719-27.535156 41.570313-45.328125 72.121094-45.328125 44.113281 0 80 35.886719 80 80 0 34.378906-51.921875 113.894531-79.972656 153.019531-16.242188-22.75-53.082032-76.363281-70.648438-118.199219-2.140625-5.089843-8-7.484374-13.09375-5.347656-5.089844 2.140625-7.484375 8-5.347656 13.09375 18.300781 43.582032 55.152344 97.382813 72.15625 121.195313-10.691406 5.003906-18.820312 14.601562-21.828125 26.238281h-234.53125c-3.007813-11.644531-11.148437-21.242188-21.847656-26.25 25.046875-35.140625 83.113281-120.710938 83.113281-163.75 0-55.140625-44.859375-100-100-100-39.144531 0-73.75 22.621094-90.140625 56.652344-2.394531 4.976562-.304687 10.953125 4.667969 13.347656 4.980468 2.398438 10.953125.308594 13.351562-4.671875 13.261719-27.535156 41.570313-45.328125 72.121094-45.328125 44.113281 0 80 35.886719 80 80 0 34.378906-51.921875 113.894531-79.972656 153.019531-16.242188-22.75-53.082032-76.363281-70.648438-118.199219-2.140625-5.089843-8-7.484374-13.09375-5.347656-5.089844 2.140625-7.484375 8-5.347656 13.09375 18.300781 43.582032 55.152344 97.382813 72.15625 121.195313-13.628906 6.382812-23.09375 20.222656-23.09375 36.238281 0 22.054688 17.945312 40 40 40 18.605469 0 34.28125-12.765625 38.734375-30h234.53125c4.453125 17.234375 20.128906 30 38.734375 30 22.054688 0 40-17.945312 40-40 0-16.023438-9.476562-29.871094-23.113281-36.25 25.046875-35.140625 83.113281-120.710938 83.113281-163.75 0-55.140625-44.859375-100-100-100zm-312 320c-11.027344 0-20-8.972656-20-20s8.972656-20 20-20 20 8.972656 20 20-8.972656 20-20 20zm312 0c-11.027344 0-20-8.972656-20-20s8.972656-20 20-20 20 8.972656 20 20-8.972656 20-20 20zm0 0"/><path d="m462 100c0-27.570312-22.429688-50-50-50s-50 22.429688-50 50 22.429688 50 50 50 50-22.429688 50-50zm-80 0c0-16.542969 13.457031-30 30-30s30 13.457031 30 30-13.457031 30-30 30-30-13.457031-30-30zm0 0"/><path d="m20 100c0-5.519531-4.480469-10-10-10s-10 4.480469-10 10 4.480469 10 10 10 10-4.480469 10-10zm0 0"/><path d="m322 110c5.519531 0 10-4.480469 10-10s-4.480469-10-10-10-10 4.480469-10 10 4.480469 10 10 10zm0 0"/></svg>